<svg width="20" height="20" viewBox="0 0 20 20" fill="none" xmlns="http://www.w3.org/2000/svg">
<path d="M17.6421 10.4043L10.0072 17.966L2.37225 10.4043C1.86865 9.91429 1.47198 9.32528 1.20721 8.6744C0.942432 8.02352 0.815293 7.32486 0.833796 6.62243C0.852299 5.92 1.01604 5.22901 1.31472 4.59297C1.61339 3.95693 2.04052 3.38962 2.56922 2.92676C3.09791 2.46391 3.71671 2.11554 4.38666 1.90358C5.05661 1.69163 5.76318 1.62069 6.46189 1.69522C7.1606 1.76975 7.83631 1.98815 8.44647 2.33666C9.05663 2.68517 9.58802 3.15624 10.0072 3.72021C10.4282 3.16033 10.9602 2.69338 11.5699 2.34857C12.1796 2.00376 12.854 1.78852 13.5507 1.71631C14.2475 1.64411 14.9516 1.71649 15.6191 1.92894C16.2866 2.14139 16.9031 2.48933 17.4299 2.95098C17.9568 3.41262 18.3826 3.97805 18.6809 4.61186C18.9792 5.24567 19.1434 5.93422 19.1633 6.63442C19.1832 7.33462 19.0584 8.03139 18.7967 8.68113C18.5349 9.33087 18.1419 9.91959 17.6421 10.4104" fill="#DB242D"/>
</svg>
