<svg width="24" height="24" viewBox="0 0 24 24" fill="none" xmlns="http://www.w3.org/2000/svg">
<path d="M20.241 20.0929L18.9544 8.15625H17.0031V11.4703C17.0031 11.5698 16.9662 11.6652 16.9003 11.7355C16.8345 11.8058 16.7452 11.8453 16.6521 11.8453C16.559 11.8453 16.4697 11.8058 16.4039 11.7355C16.338 11.6652 16.301 11.5698 16.301 11.4703V8.15625H9.01688V11.4703C9.01688 11.5698 8.9799 11.6652 8.91406 11.7355C8.84823 11.8058 8.75894 11.8453 8.66584 11.8453C8.57273 11.8453 8.48344 11.8058 8.41761 11.7355C8.35178 11.6652 8.31479 11.5698 8.31479 11.4703V8.15625H6.10023L4.81361 20.0929C4.77956 20.4093 4.80952 20.7299 4.90144 21.0329C4.99337 21.3359 5.14512 21.6143 5.34645 21.8493C5.57407 22.1165 5.85197 22.3293 6.16195 22.4737C6.47193 22.6182 6.80698 22.691 7.14516 22.6875H17.9094C18.2477 22.6911 18.5828 22.6182 18.8929 22.4737C19.2029 22.3292 19.4809 22.1164 19.7085 21.8491C19.9098 21.6142 20.0615 21.3358 20.1534 21.0328C20.2452 20.7298 20.2751 20.4093 20.241 20.0929ZM9.01688 5.71711C9.01688 3.70195 10.6556 2.0625 12.659 2.0625C14.6624 2.0625 16.301 3.70195 16.301 5.71711V8.15625H17.0031V5.71711C17.0031 3.28837 15.0495 1.3125 12.659 1.3125C10.2684 1.3125 8.31479 3.28837 8.31479 5.71711V8.15625H9.01688V5.71711Z" fill="#DB242D"/>
</svg>
