<svg width="24" height="24" viewBox="0 0 24 24" fill="none" xmlns="http://www.w3.org/2000/svg">
<g clip-path="url(#clip0_129_7727)">
<path d="M6.75 9C6.94891 9 7.13968 8.92098 7.28033 8.78033C7.42098 8.63968 7.5 8.44891 7.5 8.25C7.5 8.05109 7.42098 7.86032 7.28033 7.71967C7.13968 7.57902 6.94891 7.5 6.75 7.5H6V6C6 5.80109 5.92098 5.61032 5.78033 5.46967C5.63968 5.32902 5.44891 5.25 5.25 5.25C5.05109 5.25 4.86032 5.32902 4.71967 5.46967C4.57902 5.61032 4.5 5.80109 4.5 6V8.25C4.5 8.44891 4.57902 8.63968 4.71967 8.78033C4.86032 8.92098 5.05109 9 5.25 9H6.75Z" fill="#489B1C"/>
<path d="M23.7788 13.3463L22.395 11.9625L21.3263 9.11252C21.2729 8.96957 21.1771 8.84631 21.0518 8.75921C20.9265 8.6721 20.7776 8.62529 20.625 8.62502H19.125C18.9261 8.62502 18.7353 8.70404 18.5947 8.84469C18.454 8.98534 18.375 9.17611 18.375 9.37502C18.375 9.57393 18.454 9.7647 18.5947 9.90535C18.7353 10.046 18.9261 10.125 19.125 10.125H20.1038L21.045 12.6375C21.0829 12.7376 21.1417 12.8283 21.2175 12.9038L22.5 14.1863V17.25H20.595C20.233 16.6245 19.6573 16.1508 18.9739 15.9159C18.2904 15.6809 17.5451 15.7006 16.875 15.9713V7.56002C16.875 7.3452 16.7897 7.13917 16.6378 6.98726C16.4859 6.83536 16.2799 6.75002 16.065 6.75002H10.2788C10.0302 5.91029 9.57546 5.14609 8.95603 4.52701C8.33661 3.90793 7.57216 3.45364 6.73229 3.2055C5.89242 2.95737 5.00383 2.92327 4.14742 3.10632C3.291 3.28937 2.49399 3.68374 1.82894 4.25353C1.1639 4.82333 0.651958 5.55043 0.339736 6.36864C0.0275145 7.18685 -0.0750674 8.07016 0.0413317 8.93815C0.157731 9.80613 0.489413 10.6312 1.00617 11.3383C1.52294 12.0453 2.20836 12.6118 3.00003 12.9863V17.94C3.00003 18.1548 3.08537 18.3609 3.23727 18.5128C3.38917 18.6647 3.5952 18.75 3.81003 18.75H4.12503C4.12503 19.5457 4.4411 20.3087 5.00371 20.8713C5.56632 21.434 6.32938 21.75 7.12503 21.75C7.92068 21.75 8.68374 21.434 9.24635 20.8713C9.80896 20.3087 10.125 19.5457 10.125 18.75H15C15 19.5457 15.3161 20.3087 15.8787 20.8713C16.4413 21.434 17.2044 21.75 18 21.75C18.7957 21.75 19.5587 21.434 20.1213 20.8713C20.684 20.3087 21 19.5457 21 18.75H23.25C23.4489 18.75 23.6397 18.671 23.7804 18.5304C23.921 18.3897 24 18.1989 24 18V13.875C23.9992 13.6764 23.9196 13.4863 23.7788 13.3463ZM1.50003 8.25002C1.50003 7.50834 1.71996 6.78332 2.13202 6.16663C2.54407 5.54995 3.12974 5.0693 3.81496 4.78547C4.50019 4.50164 5.25419 4.42738 5.98162 4.57208C6.70904 4.71677 7.37723 5.07392 7.90168 5.59837C8.42612 6.12282 8.78328 6.791 8.92797 7.51843C9.07267 8.24586 8.9984 8.99986 8.71457 9.68508C8.43075 10.3703 7.9501 10.956 7.33342 11.368C6.71673 11.7801 5.99171 12 5.25003 12C4.25547 12 3.30164 11.6049 2.59838 10.9017C1.89511 10.1984 1.50003 9.24458 1.50003 8.25002ZM7.12503 20.25C6.82835 20.25 6.53835 20.162 6.29167 19.9972C6.045 19.8324 5.85274 19.5981 5.73921 19.324C5.62568 19.05 5.59597 18.7484 5.65385 18.4574C5.71173 18.1664 5.85459 17.8991 6.06437 17.6894C6.27415 17.4796 6.54142 17.3367 6.83239 17.2788C7.12336 17.221 7.42496 17.2507 7.69905 17.3642C7.97314 17.4777 8.20741 17.67 8.37223 17.9167C8.53705 18.1633 8.62503 18.4533 8.62503 18.75C8.62503 19.1478 8.46699 19.5294 8.18569 19.8107C7.90438 20.092 7.52285 20.25 7.12503 20.25ZM18 20.25C17.7034 20.25 17.4133 20.162 17.1667 19.9972C16.92 19.8324 16.7277 19.5981 16.6142 19.324C16.5007 19.05 16.471 18.7484 16.5288 18.4574C16.5867 18.1664 16.7296 17.8991 16.9394 17.6894C17.1491 17.4796 17.4164 17.3367 17.7074 17.2788C17.9984 17.221 18.3 17.2507 18.5741 17.3642C18.8481 17.4777 19.0824 17.67 19.2472 17.9167C19.4121 18.1633 19.5 18.4533 19.5 18.75C19.5 19.1478 19.342 19.5294 19.0607 19.8107C18.7794 20.092 18.3979 20.25 18 20.25Z" fill="#489B1C"/>
</g>
<defs>
<clipPath id="clip0_129_7727">
<rect width="24" height="24" fill="white"/>
</clipPath>
</defs>
</svg>
