<svg width="24" height="24" viewBox="0 0 24 24" fill="none" xmlns="http://www.w3.org/2000/svg">
<path d="M17.1562 5.75555C17.4151 5.75555 17.625 5.54569 17.625 5.2868C17.625 5.02792 17.4151 4.81805 17.1562 4.81805C16.8974 4.81805 16.6875 5.02792 16.6875 5.2868C16.6875 5.54569 16.8974 5.75555 17.1562 5.75555Z" fill="#FEB201"/>
<path d="M6.84375 5.75555C7.10263 5.75555 7.3125 5.54569 7.3125 5.2868C7.3125 5.02792 7.10263 4.81805 6.84375 4.81805C6.58487 4.81805 6.375 5.02792 6.375 5.2868C6.375 5.54569 6.58487 5.75555 6.84375 5.75555Z" fill="#FEB201"/>
<path d="M12 7.40625C12.9045 7.40625 13.6407 6.67013 13.6407 5.76562C13.6407 4.86112 12.9045 4.125 12 4.125C11.0955 4.125 10.3594 4.86112 10.3594 5.76562C10.3594 6.67013 11.0955 7.40625 12 7.40625ZM12 4.59375C12.6462 4.59375 13.1719 5.1195 13.1719 5.76562C13.1719 6.41175 12.6462 6.9375 12 6.9375C11.3539 6.9375 10.8282 6.41175 10.8282 5.76562C10.8282 5.1195 11.3539 4.59375 12 4.59375ZM1.46216 17.25C1.58216 18.8209 2.89878 20.0625 4.50003 20.0625H19.5C21.1013 20.0625 22.4179 18.8209 22.5379 17.25H1.46216Z" fill="#FEB201"/>
<path d="M2.39368 16.7813H4.2698C4.35155 14.1229 5.81555 11.6629 8.13268 10.3193C8.2448 10.2544 8.38805 10.2926 8.45293 10.4044C8.5178 10.5165 8.47955 10.6598 8.3678 10.7246C6.19468 11.9843 4.81993 14.289 4.73855 16.7809H21.6068C21.4819 11.5901 17.2208 7.40588 12.0004 7.40588C6.78005 7.40588 2.51855 11.5901 2.39368 16.7813ZM12.0001 9.28126C13.0024 9.28126 13.9782 9.47101 14.9007 9.84563C15.0207 9.89438 15.0784 10.0309 15.0297 10.1509C14.9926 10.242 14.9052 10.2971 14.8126 10.2971C14.7833 10.2971 14.7533 10.2915 14.7244 10.2799C13.8582 9.92813 12.9417 9.75001 12.0001 9.75001C11.8707 9.75001 11.7657 9.64501 11.7657 9.51563C11.7657 9.38626 11.8707 9.28126 12.0001 9.28126Z" fill="#FEB201"/>
</svg>
