<svg width="24" height="22" viewBox="0 0 24 22" fill="none" xmlns="http://www.w3.org/2000/svg">
<path d="M21.1721 11.4854L12.0102 20.5594L2.84826 11.4854C2.24395 10.8973 1.76794 10.1905 1.45021 9.40947C1.13248 8.62841 0.979915 7.79003 1.00212 6.94711C1.02432 6.10419 1.22081 5.275 1.57922 4.51176C1.93763 3.74851 2.45019 3.06774 3.08462 2.51231C3.71905 1.95689 4.46162 1.53884 5.26555 1.28449C6.06949 1.03015 6.91738 0.945018 7.75583 1.03446C8.59429 1.1239 9.40514 1.38598 10.1373 1.80419C10.8695 2.2224 11.5072 2.78768 12.0102 3.46444C12.5153 2.7926 13.1538 2.23225 13.8854 1.81848C14.6171 1.40471 15.4263 1.14642 16.2624 1.05977C17.0985 0.973122 17.9435 1.05999 18.7445 1.31492C19.5455 1.56986 20.2853 1.98739 20.9175 2.54137C21.5497 3.09534 22.0607 3.77385 22.4186 4.53442C22.7766 5.29499 22.9736 6.12126 22.9975 6.9615C23.0214 7.80174 22.8716 8.63786 22.5575 9.41755C22.2434 10.1972 21.7718 10.9037 21.1721 11.4927" fill="white" fill-opacity="0.5"/>
<path d="M21.1721 11.4854L12.0102 20.5594L2.84826 11.4854C2.24395 10.8973 1.76794 10.1905 1.45021 9.40947C1.13248 8.62841 0.979915 7.79003 1.00212 6.94711C1.02432 6.10419 1.22081 5.275 1.57922 4.51176C1.93763 3.74851 2.45019 3.06774 3.08462 2.51231C3.71905 1.95689 4.46162 1.53884 5.26555 1.28449C6.06949 1.03015 6.91738 0.945018 7.75583 1.03446C8.59429 1.1239 9.40514 1.38598 10.1373 1.80419C10.8695 2.2224 11.5072 2.78768 12.0102 3.46444C12.5153 2.7926 13.1538 2.23225 13.8854 1.81848C14.6171 1.40471 15.4263 1.14642 16.2624 1.05977C17.0985 0.973122 17.9435 1.05999 18.7445 1.31492C19.5455 1.56986 20.2853 1.98739 20.9175 2.54137C21.5497 3.09534 22.0607 3.77385 22.4186 4.53442C22.7766 5.29499 22.9736 6.12126 22.9975 6.9615C23.0214 7.80174 22.8716 8.63786 22.5575 9.41755C22.2434 10.1972 21.7718 10.9037 21.1721 11.4927" stroke="#48464A" stroke-width="1.5" stroke-linecap="round" stroke-linejoin="round"/>
</svg>
