<svg width="24" height="24" viewBox="0 0 24 24" fill="none" xmlns="http://www.w3.org/2000/svg">
<g clip-path="url(#clip0_650_53667)">
<path d="M12 12V12.01" stroke="#1C1B1E" stroke-width="1.5" stroke-linecap="round" stroke-linejoin="round"/>
<path d="M14.8281 9.17188C15.578 9.92199 15.9993 10.9392 15.9993 11.9999C15.9993 13.0605 15.578 14.0778 14.8281 14.8279" stroke="#1C1B1E" stroke-width="1.5" stroke-linecap="round" stroke-linejoin="round"/>
<path d="M17.6562 6.34277C18.3992 7.08565 18.9885 7.96758 19.3905 8.93821C19.7926 9.90884 19.9995 10.9492 19.9995 11.9998C19.9995 13.0504 19.7926 14.0907 19.3905 15.0613C18.9885 16.032 18.3992 16.9139 17.6562 17.6568" stroke="#1C1B1E" stroke-width="1.5" stroke-linecap="round" stroke-linejoin="round"/>
<path d="M9.16724 14.8279C8.41736 14.0778 7.99609 13.0605 7.99609 11.9999C7.99609 10.9392 8.41736 9.92199 9.16724 9.17188" stroke="#1C1B1E" stroke-width="1.5" stroke-linecap="round" stroke-linejoin="round"/>
<path d="M6.33548 17.6568C5.59257 16.9139 5.00325 16.032 4.60119 15.0613C4.19913 14.0907 3.99219 13.0504 3.99219 11.9998C3.99219 10.9492 4.19913 9.90884 4.60119 8.93821C5.00325 7.96758 5.59257 7.08565 6.33548 6.34277" stroke="#1C1B1E" stroke-width="1.5" stroke-linecap="round" stroke-linejoin="round"/>
</g>
<defs>
<clipPath id="clip0_650_53667">
<rect width="24" height="24" fill="white"/>
</clipPath>
</defs>
</svg>
