<svg width="24" height="24" viewBox="0 0 24 24" fill="none" xmlns="http://www.w3.org/2000/svg">
<path d="M12 9C14.2091 9 16 7.20914 16 5C16 2.79086 14.2091 1 12 1C9.79086 1 8 2.79086 8 5C8 7.20914 9.79086 9 12 9Z" stroke="#1C1B1E" stroke-width="1.5" stroke-linecap="round" stroke-linejoin="round"/>
<path d="M6 15C6 13.9391 6.42143 12.9217 7.17157 12.1716C7.92172 11.4214 8.93913 11 10 11H14C15.0609 11 16.0783 11.4214 16.8284 12.1716C17.5786 12.9217 18 13.9391 18 15" stroke="#1C1B1E" stroke-width="1.5" stroke-linecap="round" stroke-linejoin="round"/>
<path d="M1 15L23 15" stroke="#1C1B1E" stroke-width="1.5"/>
<path d="M8 19L16 19" stroke="#1C1B1E" stroke-width="1.5"/>
<rect x="4" y="15" width="16" height="8" stroke="#1C1B1E" stroke-width="1.5"/>
</svg>
