<svg width="24" height="24" viewBox="0 0 24 24" fill="none" xmlns="http://www.w3.org/2000/svg">
<g clip-path="url(#clip0_650_53658)">
<path d="M23.3414 7.13996C22.8614 6.59996 22.2014 6.23996 21.4814 6.23996H12.2414C11.9414 6.23996 11.6414 6.47996 11.6414 6.83996C11.6414 7.19996 11.9414 7.43996 12.2414 7.43996H21.4814C21.8414 7.43996 22.2014 7.61996 22.4414 7.85996C22.6814 8.15996 22.8014 8.51996 22.6814 8.87996L22.1414 11.88H15.5414C15.2414 11.88 14.9414 12.12 14.9414 12.48C14.9414 12.84 15.2414 13.08 15.5414 13.08H21.9614L21.4214 15.96C21.3614 16.38 20.9414 16.68 20.5214 16.68H9.00141C8.58141 16.68 8.22141 16.38 8.10141 15.96L5.76141 2.93996C5.70141 2.63996 5.46141 2.45996 5.16141 2.45996H0.541406C0.241406 2.45996 -0.0585938 2.69996 -0.0585938 3.05996C-0.0585938 3.41996 0.241406 3.65996 0.541406 3.65996H4.68141L6.96141 16.26C7.08141 17.1 7.68141 17.7 8.46141 17.94C8.16141 18.36 7.92141 18.9 7.92141 19.5C7.92141 21 9.12141 22.2 10.6214 22.2C12.1214 22.2 13.3214 21 13.3214 19.5C13.3214 18.96 13.1414 18.42 12.8414 18H16.5014C16.2014 18.42 16.0214 18.96 16.0214 19.5C16.0214 21 17.2214 22.2 18.7214 22.2C20.2214 22.2 21.4214 21 21.4214 19.5C21.4214 18.9 21.2414 18.36 20.9414 17.94C21.7214 17.76 22.3814 17.1 22.5614 16.26L23.8814 9.17996C24.0014 8.45996 23.8214 7.73996 23.3414 7.13996ZM12.1214 19.44C12.1214 20.28 11.4614 20.94 10.6214 20.94C9.78141 20.94 9.12141 20.28 9.12141 19.44C9.12141 18.6 9.78141 17.94 10.6214 17.94C11.4614 17.94 12.1214 18.6 12.1214 19.44ZM18.7814 20.94C17.9414 20.94 17.2814 20.28 17.2814 19.44C17.2814 18.6 17.9414 17.94 18.7814 17.94C19.6214 17.94 20.2814 18.6 20.2814 19.44C20.2814 20.28 19.6214 20.94 18.7814 20.94Z" fill="#1C1B1E"/>
</g>
<defs>
<clipPath id="clip0_650_53658">
<rect width="24" height="24" fill="white"/>
</clipPath>
</defs>
</svg>
